<svg xmlns="http://www.w3.org/2000/svg" width="900" height="1280" viewBox="0 0 900 1280">

    
    <linearGradient id="sky" x1="0" y1="0" x2="0" y2="1">
    <stop offset="0" stop-color="#1d3a5f"/><stop offset="1" stop-color="#4b7aa8"/>
  </linearGradient>
    <defs><pattern id="ht3" width="6" height="6" patternUnits="userSpaceOnUse">
    <circle cx="1.5" cy="1.5" r="1.5" fill="#1a1a2e" opacity="0.14"/>
  </pattern><pattern id="ht4" width="8" height="8" patternUnits="userSpaceOnUse">
    <circle cx="2" cy="2" r="2" fill="#1a1a2e" opacity="0.1"/>
  </pattern></defs>
    <rect x="0" y="0" width="900" height="1280" fill="url(#sky)"/>
    <circle cx="563.7220226527905" cy="646.896672466911" r="1.4693826215296815" fill="#fff7d6" opacity="0.5154693350452391"/><circle cx="232.6458978745811" cy="38.184559955930474" r="1.6301518529516708" fill="#fff7d6" opacity="0.6756739987139964"/><circle cx="817.290703485538" cy="33.3359858262503" r="0.6793292648366891" fill="#fff7d6" opacity="0.9264500064945181"/><circle cx="447.3067046396458" cy="788.6638840691127" r="1.2913820475185833" fill="#fff7d6" opacity="0.6485975528057972"/><circle cx="491.8350911924878" cy="573.2676284208795" r="1.3040010589419893" fill="#fff7d6" opacity="0.6783496375494897"/><circle cx="539.1562289624551" cy="253.1596304070253" r="1.5184186861575317" fill="#fff7d6" opacity="0.7791198739009081"/><circle cx="280.4118652825732" cy="229.45569352352834" r="1.2577494603428303" fill="#fff7d6" opacity="0.9299786139758015"/><circle cx="632.9386617503719" cy="370.65112209205716" r="1.2513396180378633" fill="#fff7d6" opacity="0.7195926023400755"/><circle cx="13.738698603490828" cy="173.69824367979214" r="1.7574439515785851" fill="#fff7d6" opacity="0.9035434190986451"/><circle cx="536.4420937892605" cy="168.28505403097247" r="1.591791756356665" fill="#fff7d6" opacity="0.5345920267830979"/><circle cx="598.2927351979905" cy="350.31758262026887" r="1.1850840132542029" fill="#fff7d6" opacity="0.5423033853266834"/><circle cx="329.0815362329768" cy="482.7382978742845" r="1.383519659398036" fill="#fff7d6" opacity="0.946735078058494"/><circle cx="376.4899941673611" cy="455.7692164761975" r="0.9284277861937781" fill="#fff7d6" opacity="0.6881375724290717"/><circle cx="424.41970233158395" cy="99.24369006926082" r="0.8063678387872992" fill="#fff7d6" opacity="0.9757691482822286"/><circle cx="680.6733123882385" cy="244.67678558451584" r="1.7861712116375084" fill="#fff7d6" opacity="0.5683579161057801"/><circle cx="801.4342001409569" cy="175.9944400937192" r="1.8888203395675154" fill="#fff7d6" opacity="0.6280221072859705"/><circle cx="406.3198841378012" cy="630.1121198257131" r="1.2834598965943684" fill="#fff7d6" opacity="0.9913892584030256"/><circle cx="585.9456029259" cy="721.7323562766076" r="0.9145927722210547" fill="#fff7d6" opacity="0.8850761122736922"/><circle cx="831.202849484592" cy="0.7671597117026645" r="0.7948742540758026" fill="#fff7d6" opacity="0.5700974477785185"/><circle cx="878.2110198754879" cy="172.8658921235908" r="0.9382165694799105" fill="#fff7d6" opacity="0.6010247039559015"/><circle cx="459.2190691099477" cy="428.39730786995904" r="1.6897719829795683" fill="#fff7d6" opacity="0.5255875205860496"/><circle cx="421.7778690271769" cy="399.334704568861" r="0.9178657388035709" fill="#fff7d6" opacity="0.8093914311826952"/><circle cx="297.34681443890423" cy="202.62952016978377" r="1.8381625622576432" fill="#fff7d6" opacity="0.7475986958489045"/><circle cx="708.2618880753064" cy="559.0713248263467" r="1.6287614714439056" fill="#fff7d6" opacity="0.5940632397034982"/><circle cx="535.9752473032213" cy="490.1371249544357" r="1.0396832627703048" fill="#fff7d6" opacity="0.5706980176062466"/><circle cx="425.1838846629083" cy="215.01795553319576" r="1.356390911741832" fill="#fff7d6" opacity="0.9043077900987448"/><circle cx="235.59173198825874" cy="777.0660106971229" r="0.7277514926029618" fill="#fff7d6" opacity="0.8243990714617955"/><circle cx="803.5487678444774" cy="22.539812987198538" r="1.2728345784097237" fill="#fff7d6" opacity="0.6211728298433197"/><circle cx="801.9230284689045" cy="16.244989314120325" r="0.7052582677318326" fill="#fff7d6" opacity="0.914587245754664"/><circle cx="251.93050811491722" cy="141.95740130873884" r="1.8904146025707096" fill="#fff7d6" opacity="0.5034690395015129"/><circle cx="237.0222763268592" cy="32.19607286202371" r="1.4666706272986818" fill="#fff7d6" opacity="0.5185814297528792"/><circle cx="114.93625195502811" cy="410.9491379963499" r="0.7963391626552649" fill="#fff7d6" opacity="0.9059587371048781"/><circle cx="635.4813372372357" cy="628.1883093409634" r="1.387847183282306" fill="#fff7d6" opacity="0.756344131836719"/><circle cx="556.0814227864197" cy="400.6847867835993" r="1.0681870292065798" fill="#fff7d6" opacity="0.5995571054808656"/><circle cx="73.17586294294138" cy="329.1159326068644" r="1.433627319466844" fill="#fff7d6" opacity="0.9074575371582627"/><circle cx="240.74480194784346" cy="548.1096770824419" r="1.0358132075030375" fill="#fff7d6" opacity="0.5646179825350578"/><circle cx="168.61185081111836" cy="479.1497548019315" r="1.6962988814632616" fill="#fff7d6" opacity="0.744586839677444"/><circle cx="204.9580583913912" cy="194.84317297567517" r="1.854580464777785" fill="#fff7d6" opacity="0.8679662027320794"/><circle cx="413.79129076401665" cy="58.31539378963638" r="1.1965710634168287" fill="#fff7d6" opacity="0.9106018369108454"/><circle cx="61.18973974936305" cy="28.772269967843634" r="0.8835178782967743" fill="#fff7d6" opacity="0.832698022153812"/><circle cx="143.22649683800148" cy="699.721351292334" r="1.8828168568054577" fill="#fff7d6" opacity="0.613797909495575"/><circle cx="707.2655863857037" cy="183.46822097870873" r="0.8709007629784042" fill="#fff7d6" opacity="0.7254293849993918"/><circle cx="488.0654597600178" cy="781.8657065965045" r="0.7744060978077624" fill="#fff7d6" opacity="0.7516563734937114"/><circle cx="452.14717625756344" cy="542.0108426113629" r="1.5930782533572572" fill="#fff7d6" opacity="0.847245684320651"/><circle cx="457.72142951307086" cy="679.4847824304085" r="1.4116704023542952" fill="#fff7d6" opacity="0.7026537170176619"/><circle cx="91.85513201426046" cy="548.7489402411172" r="1.8222090198686796" fill="#fff7d6" opacity="0.9666541041677482"/><circle cx="444.02794095189483" cy="10.713849100370554" r="0.6914583879156451" fill="#fff7d6" opacity="0.8927048948736207"/><circle cx="427.659842020303" cy="536.1145662219193" r="1.0328696341820338" fill="#fff7d6" opacity="0.6188426465582669"/><circle cx="884.8960059159963" cy="430.334218591664" r="0.6877674104808633" fill="#fff7d6" opacity="0.7598523563836354"/><circle cx="524.690509466756" cy="364.27827027039694" r="1.4014034542796623" fill="#fff7d6" opacity="0.5478291490321421"/><circle cx="6.43049070026418" cy="71.71346850253857" r="1.306807898715673" fill="#fff7d6" opacity="0.9811107171195244"/><circle cx="152.3076656953874" cy="646.7138536620865" r="1.3713979087771433" fill="#fff7d6" opacity="0.781810867392234"/><circle cx="354.68731512041404" cy="44.84413528156647" r="1.3228711081253781" fill="#fff7d6" opacity="0.8810324229986459"/><circle cx="686.101508216786" cy="342.02935956203623" r="0.9245616714759199" fill="#fff7d6" opacity="0.6331698353211908"/><circle cx="500.7808146409927" cy="267.86021024817" r="0.9240481454087055" fill="#fff7d6" opacity="0.6790388339898312"/><circle cx="167.37202009762464" cy="684.6554878461483" r="1.0729644970395553" fill="#fff7d6" opacity="0.5530179512439444"/><circle cx="667.9580194761295" cy="606.475765278338" r="0.7148048764064127" fill="#fff7d6" opacity="0.9686539337419195"/><circle cx="342.93035715879074" cy="485.4505650416466" r="1.336889032655773" fill="#fff7d6" opacity="0.9614195759740954"/><circle cx="198.46311136362613" cy="336.5384822325551" r="1.2420333774704662" fill="#fff7d6" opacity="0.5455110081580347"/><circle cx="43.51641607372159" cy="285.3465828812803" r="1.4721771108589676" fill="#fff7d6" opacity="0.7613242539507732"/><circle cx="880.134576139999" cy="632.5762709950677" r="1.520478890682651" fill="#fff7d6" opacity="0.9879426072978176"/><circle cx="104.45812765315972" cy="716.228943698116" r="0.8938166391642637" fill="#fff7d6" opacity="0.8956474107686464"/><circle cx="383.14117925624" cy="406.4654842569404" r="0.6931596028860942" fill="#fff7d6" opacity="0.5140645256637622"/><circle cx="550.811420009608" cy="769.5311777125609" r="1.8851667812242883" fill="#fff7d6" opacity="0.7810139957294436"/><circle cx="249.80594989998062" cy="744.7664833040386" r="1.39795791527407" fill="#fff7d6" opacity="0.8039601997559578"/><circle cx="319.96622428070475" cy="233.35068823924894" r="1.6615493887023525" fill="#fff7d6" opacity="0.7196271961190174"/><circle cx="577.460827631885" cy="26.544406251620163" r="1.685178246190568" fill="#fff7d6" opacity="0.7045077507809658"/><circle cx="194.2964894863115" cy="297.254983831846" r="1.5612269851082914" fill="#fff7d6" opacity="0.9839674878350664"/><circle cx="882.5435071212045" cy="218.85060918532255" r="1.0669737776055213" fill="#fff7d6" opacity="0.5881959916105914"/><circle cx="885.7072110644809" cy="527.1065129088882" r="0.9403940145462151" fill="#fff7d6" opacity="0.7046712369445034"/>
    <g>
    <circle cx="772.8288106713444" cy="132.15444361791015" r="26" fill="#f7f2d8" stroke="#d9c98a" stroke-width="1"/>
    <circle cx="764.8288106713444" cy="126.15444361791015" r="21.32" fill="#e9e2bd"/>
  </g>
    <rect x="0" y="808.7559477705508" width="900" height="471.24405222944915" fill="#22334f"/>
    <path d="M 0 808.7559477705508 q 150 -10 300 0 t 300 0 t 300 0" fill="none" stroke="#3f5f8f" stroke-width="2.4" opacity="0.75"/><path d="M 0 830.7559477705508 q 150 -10 300 0 t 300 0 t 300 0" fill="none" stroke="#3f5f8f" stroke-width="2.4" opacity="0.75"/><path d="M 0 852.7559477705508 q 150 -10 300 0 t 300 0 t 300 0" fill="none" stroke="#3f5f8f" stroke-width="2.4" opacity="0.75"/><path d="M 0 874.7559477705508 q 150 -10 300 0 t 300 0 t 300 0" fill="none" stroke="#3f5f8f" stroke-width="2.4" opacity="0.75"/><path d="M 0 896.7559477705508 q 150 -10 300 0 t 300 0 t 300 0" fill="none" stroke="#3f5f8f" stroke-width="2.4" opacity="0.75"/><path d="M 0 918.7559477705508 q 150 -10 300 0 t 300 0 t 300 0" fill="none" stroke="#3f5f8f" stroke-width="2.4" opacity="0.75"/><path d="M 0 940.7559477705508 q 150 -10 300 0 t 300 0 t 300 0" fill="none" stroke="#3f5f8f" stroke-width="2.4" opacity="0.75"/><path d="M 0 962.7559477705508 q 150 -10 300 0 t 300 0 t 300 0" fill="none" stroke="#3f5f8f" stroke-width="2.4" opacity="0.75"/><path d="M 0 984.7559477705508 q 150 -10 300 0 t 300 0 t 300 0" fill="none" stroke="#3f5f8f" stroke-width="2.4" opacity="0.75"/><path d="M 0 1006.7559477705508 q 150 -10 300 0 t 300 0 t 300 0" fill="none" stroke="#3f5f8f" stroke-width="2.4" opacity="0.75"/><path d="M 0 1028.7559477705508 q 150 -10 300 0 t 300 0 t 300 0" fill="none" stroke="#3f5f8f" stroke-width="2.4" opacity="0.75"/><path d="M 0 1050.7559477705508 q 150 -10 300 0 t 300 0 t 300 0" fill="none" stroke="#3f5f8f" stroke-width="2.4" opacity="0.75"/><path d="M 0 1072.7559477705508 q 150 -10 300 0 t 300 0 t 300 0" fill="none" stroke="#3f5f8f" stroke-width="2.4" opacity="0.75"/><path d="M 0 1094.7559477705508 q 150 -10 300 0 t 300 0 t 300 0" fill="none" stroke="#3f5f8f" stroke-width="2.4" opacity="0.75"/><path d="M 0 1116.7559477705508 q 150 -10 300 0 t 300 0 t 300 0" fill="none" stroke="#3f5f8f" stroke-width="2.4" opacity="0.75"/><path d="M 0 1138.7559477705508 q 150 -10 300 0 t 300 0 t 300 0" fill="none" stroke="#3f5f8f" stroke-width="2.4" opacity="0.75"/><path d="M 0 1160.7559477705508 q 150 -10 300 0 t 300 0 t 300 0" fill="none" stroke="#3f5f8f" stroke-width="2.4" opacity="0.75"/><path d="M 0 1182.7559477705508 q 150 -10 300 0 t 300 0 t 300 0" fill="none" stroke="#3f5f8f" stroke-width="2.4" opacity="0.75"/><path d="M 0 1204.7559477705508 q 150 -10 300 0 t 300 0 t 300 0" fill="none" stroke="#3f5f8f" stroke-width="2.4" opacity="0.75"/><path d="M 0 1226.7559477705508 q 150 -10 300 0 t 300 0 t 300 0" fill="none" stroke="#3f5f8f" stroke-width="2.4" opacity="0.75"/><path d="M 0 1248.7559477705508 q 150 -10 300 0 t 300 0 t 300 0" fill="none" stroke="#3f5f8f" stroke-width="2.4" opacity="0.75"/><path d="M 0 1270.7559477705508 q 150 -10 300 0 t 300 0 t 300 0" fill="none" stroke="#3f5f8f" stroke-width="2.4" opacity="0.75"/><path d="M 0 1292.7559477705508 q 150 -10 300 0 t 300 0 t 300 0" fill="none" stroke="#3f5f8f" stroke-width="2.4" opacity="0.75"/><path d="M 0 1314.7559477705508 q 150 -10 300 0 t 300 0 t 300 0" fill="none" stroke="#3f5f8f" stroke-width="2.4" opacity="0.75"/><path d="M 0 1336.7559477705508 q 150 -10 300 0 t 300 0 t 300 0" fill="none" stroke="#3f5f8f" stroke-width="2.4" opacity="0.75"/><path d="M 0 1358.7559477705508 q 150 -10 300 0 t 300 0 t 300 0" fill="none" stroke="#3f5f8f" stroke-width="2.4" opacity="0.75"/><path d="M 0 1380.7559477705508 q 150 -10 300 0 t 300 0 t 300 0" fill="none" stroke="#3f5f8f" stroke-width="2.4" opacity="0.75"/><path d="M 0 1402.7559477705508 q 150 -10 300 0 t 300 0 t 300 0" fill="none" stroke="#3f5f8f" stroke-width="2.4" opacity="0.75"/><path d="M 0 1424.7559477705508 q 150 -10 300 0 t 300 0 t 300 0" fill="none" stroke="#3f5f8f" stroke-width="2.4" opacity="0.75"/><path d="M 0 1446.7559477705508 q 150 -10 300 0 t 300 0 t 300 0" fill="none" stroke="#3f5f8f" stroke-width="2.4" opacity="0.75"/>
    <g>
    <rect x="183.56316855270416" y="788.7559477705508" width="52" height="14" fill="#3a3a4d"/>
    <polygon points="191.56316855270416,788.7559477705508 227.56316855270416,788.7559477705508 218.56316855270416,678.7559477705508 200.56316855270416,678.7559477705508" fill="#f2efe6" stroke="#101018" stroke-width="2"/>
    <rect x="202.56316855270416" y="652.7559477705508" width="14" height="26" fill="#c93a3a" stroke="#101018" stroke-width="2"/>
    <polygon points="197.56316855270416,648.7559477705508 221.56316855270416,648.7559477705508 209.56316855270416,630.7559477705508" fill="#ffd24a" opacity="0.9"/>
    <polygon points="209.56316855270416,638.7559477705508 269.56316855270416,606.7559477705508 261.56316855270416,640.7559477705508" fill="#ffd24a" opacity="0.28"/>
    <polygon points="209.56316855270416,638.7559477705508 149.56316855270416,606.7559477705508 157.56316855270416,640.7559477705508" fill="#ffd24a" opacity="0.28"/>
  </g>
    <line x1="630" y1="90" x2="558" y2="190" stroke="#ffd24a" stroke-width="3" opacity="0.9"/>
    <line x1="630" y1="90" x2="558" y2="190" stroke="#fff3c4" stroke-width="6" opacity="0.4"/>
    
  
    <rect x="40" y="60" width="820" height="1120" fill="none" stroke="#101018" stroke-width="5"/>
    
    <text x="70" y="1210" width="760" font-family="Georgia, serif" font-style="italic" font-size="15" fill="#3a3a55">E o mar, que nunca respondia, respondeu.</text>
    
</svg>