<svg xmlns="http://www.w3.org/2000/svg" width="600" height="800" viewBox="0 0 600 800">
  <linearGradient id="csky" x1="0" y1="0" x2="0" y2="1">
    <stop offset="0" stop-color="#14123a"/><stop offset="1" stop-color="#3d2a55"/>
  </linearGradient>
  <pattern id="ht3" width="6" height="6" patternUnits="userSpaceOnUse">
    <circle cx="1.5" cy="1.5" r="1.5" fill="#1a1a2e" opacity="0.12"/>
  </pattern>
  <defs><clipPath id="coverClip"><rect width="600" height="800"/></clipPath></defs>
  <g clip-path="url(#coverClip)">
    <rect width="600" height="800" fill="url(#csky)"/>
    <circle cx="451.9246183271656" cy="97.48868086958802" r="1.800507465039149" fill="#fff7d6" opacity="0.9880510712475341"/><circle cx="64.38582360984772" cy="563.2921486306111" r="1.4755543214216964" fill="#fff7d6" opacity="0.7615383716975099"/><circle cx="506.6747148542372" cy="55.231824126050796" r="0.8641330092009464" fill="#fff7d6" opacity="0.5388955588347685"/><circle cx="478.0226413480551" cy="57.41449152696033" r="0.8571601883319548" fill="#fff7d6" opacity="0.8776062662413049"/><circle cx="161.78832397685036" cy="86.21083097088419" r="1.8432251385411202" fill="#fff7d6" opacity="0.5728570786349823"/><circle cx="215.79441210928866" cy="153.92359870773706" r="1.6188868009433883" fill="#fff7d6" opacity="0.632855218645734"/><circle cx="40.26078811319827" cy="257.5957815266445" r="1.0031031685336522" fill="#fff7d6" opacity="0.9018642252748325"/><circle cx="15.606774026584613" cy="289.2192906542184" r="1.6017918368230073" fill="#fff7d6" opacity="0.6050095874654823"/><circle cx="146.877179533398" cy="132.9102383879559" r="1.7144289699476438" fill="#fff7d6" opacity="0.6044557599658822"/><circle cx="81.5430736457153" cy="148.9365295973823" r="1.3348469884621643" fill="#fff7d6" opacity="0.6158271186355955"/><circle cx="434.4149403168724" cy="350.2859980245425" r="1.0005441455358102" fill="#fff7d6" opacity="0.835872021901207"/><circle cx="63.596462702682864" cy="375.73712664008417" r="1.4570509322883072" fill="#fff7d6" opacity="0.8099461005331907"/><circle cx="220.45357762382636" cy="510.7210999117667" r="0.9468059323897982" fill="#fff7d6" opacity="0.6057350413259275"/><circle cx="362.85280530934847" cy="505.1575733768545" r="0.8594039578508517" fill="#fff7d6" opacity="0.9338910723230631"/><circle cx="129.9671782882295" cy="168.9437172374343" r="1.3946008697309553" fill="#fff7d6" opacity="0.8307673597905372"/><circle cx="49.552211173655245" cy="579.9438907057247" r="1.01232981328195" fill="#fff7d6" opacity="0.7678710351189745"/><circle cx="99.34632409943079" cy="195.21920462109503" r="1.7248023093630338" fill="#fff7d6" opacity="0.8650155791617398"/><circle cx="429.2584287180576" cy="567.3562885192895" r="0.6604385422867364" fill="#fff7d6" opacity="0.8490438058652965"/><circle cx="298.7865524805059" cy="112.08436382594789" r="1.558133912849173" fill="#fff7d6" opacity="0.817572187736499"/><circle cx="204.50930263549805" cy="569.9208991493825" r="1.7266222592058673" fill="#fff7d6" opacity="0.7083988404433554"/><circle cx="154.44938872526942" cy="494.7003340314633" r="1.5236838204527892" fill="#fff7d6" opacity="0.7663151589187387"/><circle cx="17.752234499933593" cy="287.73039616524306" r="1.2042944000693991" fill="#fff7d6" opacity="0.8150200623746596"/><circle cx="216.13830650803857" cy="249.1326972267495" r="1.7523363825259186" fill="#fff7d6" opacity="0.5339935769607946"/><circle cx="178.08142093911167" cy="7.268385533078117" r="0.7914020484674325" fill="#fff7d6" opacity="0.7854072275965518"/><circle cx="393.9776747124329" cy="594.749825351796" r="1.4290234320008168" fill="#fff7d6" opacity="0.8544183903472731"/><circle cx="53.81133577648589" cy="82.83979584703289" r="0.7935103888204657" fill="#fff7d6" opacity="0.6344438346522513"/><circle cx="367.1703810989847" cy="337.20243712410144" r="1.5387702691820841" fill="#fff7d6" opacity="0.8285118704264856"/><circle cx="418.8317752523834" cy="517.3470165245706" r="1.6539989776969053" fill="#fff7d6" opacity="0.6441942648383592"/><circle cx="194.56249476477598" cy="361.04714729509453" r="1.4039527235246205" fill="#fff7d6" opacity="0.8941254472666162"/><circle cx="476.5532693298209" cy="534.4303748802555" r="1.7558906842437114" fill="#fff7d6" opacity="0.8738538921732262"/><circle cx="450.80005730443213" cy="567.58213303362" r="1.8352608565651307" fill="#fff7d6" opacity="0.8266631211985971"/><circle cx="25.582006270458677" cy="429.2922079612541" r="0.8088708334148738" fill="#fff7d6" opacity="0.9780009642390652"/><circle cx="315.73279589092385" cy="337.14774885571944" r="1.1437918091948882" fill="#fff7d6" opacity="0.6943204708785481"/><circle cx="65.22474840364403" cy="217.67304666213744" r="1.0336552761088784" fill="#fff7d6" opacity="0.6704054092354303"/><circle cx="38.2940104365425" cy="311.71845961068254" r="1.765405738027944" fill="#fff7d6" opacity="0.8897412797154765"/><circle cx="576.6394494973695" cy="467.68195900389685" r="1.1622074431454708" fill="#fff7d6" opacity="0.7982797750929895"/><circle cx="210.80730110373037" cy="119.10269048173143" r="1.0077230438417024" fill="#fff7d6" opacity="0.742153412339075"/><circle cx="597.5946545461944" cy="583.2393151920563" r="1.519790691118543" fill="#fff7d6" opacity="0.9563303991076355"/><circle cx="45.48663941885756" cy="524.0115575459153" r="1.6039067952308557" fill="#fff7d6" opacity="0.6582912385706194"/><circle cx="126.13203267082815" cy="427.43719995141106" r="1.5240830237191414" fill="#fff7d6" opacity="0.9833884208883061"/><circle cx="567.5866620632388" cy="235.11599097358757" r="1.484605444670939" fill="#fff7d6" opacity="0.6683189033156162"/><circle cx="256.3100039785914" cy="574.8780058221503" r="1.086322502643987" fill="#fff7d6" opacity="0.7724538580274513"/><circle cx="207.19288946982596" cy="405.88043001813884" r="1.1968223456323441" fill="#fff7d6" opacity="0.5843977912224186"/><circle cx="568.8960079231134" cy="494.2030825721412" r="1.8865147584587012" fill="#fff7d6" opacity="0.8001066243609586"/><circle cx="72.36860826279981" cy="603.959401312711" r="1.7188494567635" fill="#fff7d6" opacity="0.8351856802317855"/><circle cx="455.9853106540109" cy="324.44225713482575" r="0.848946905342199" fill="#fff7d6" opacity="0.8390388547902086"/><circle cx="0.3177603781616467" cy="230.18189047535802" r="1.4705605912760542" fill="#fff7d6" opacity="0.6942686790310589"/><circle cx="451.2074256137968" cy="415.6290960759932" r="0.9415006761296293" fill="#fff7d6" opacity="0.5653978460115054"/><circle cx="334.33992440313074" cy="92.55362134175151" r="1.1022345576466728" fill="#fff7d6" opacity="0.8012763780000015"/><circle cx="125.21759060979505" cy="117.75034031555428" r="1.7298576849592497" fill="#fff7d6" opacity="0.9874779040609947"/><circle cx="142.62107178449125" cy="15.23640541144421" r="0.9317294273961555" fill="#fff7d6" opacity="0.9388960990321835"/><circle cx="219.14827722933353" cy="45.84346603237252" r="0.9877870936616189" fill="#fff7d6" opacity="0.9255906658580426"/><circle cx="156.69885931029185" cy="258.95725079099816" r="0.7244906481907649" fill="#fff7d6" opacity="0.9833025646185821"/><circle cx="224.79577216304477" cy="338.28032318281515" r="1.092801859465085" fill="#fff7d6" opacity="0.6304666792083509"/><circle cx="107.64406123158136" cy="139.71430416786072" r="1.5734500733663843" fill="#fff7d6" opacity="0.6729218881891136"/><circle cx="260.7194088455107" cy="418.23903983158556" r="0.8064677350616644" fill="#fff7d6" opacity="0.6165643184719144"/><circle cx="452.0980473301613" cy="563.3498749723199" r="1.7062991532226768" fill="#fff7d6" opacity="0.619966032955607"/><circle cx="208.21543234848502" cy="518.3374733121483" r="0.9382770463812811" fill="#fff7d6" opacity="0.784129978595575"/><circle cx="404.27988756533773" cy="534.7319277366861" r="0.9798465129033082" fill="#fff7d6" opacity="0.6285802628436735"/><circle cx="364.058129573917" cy="332.0654872067579" r="0.9044623508374304" fill="#fff7d6" opacity="0.5013249931554956"/><circle cx="428.4291424529705" cy="389.3301600056842" r="1.076959465196901" fill="#fff7d6" opacity="0.711112354237461"/><circle cx="342.2873239797301" cy="191.29299502030497" r="1.4892537103483026" fill="#fff7d6" opacity="0.9650382436739848"/><circle cx="153.45103754331257" cy="92.18502198119421" r="1.475892380623975" fill="#fff7d6" opacity="0.9129982202132579"/><circle cx="506.56411550283667" cy="364.61691883977517" r="1.2627343340949606" fill="#fff7d6" opacity="0.7068870360688297"/><circle cx="329.9573932724505" cy="510.62581134779094" r="1.0056728948748286" fill="#fff7d6" opacity="0.8086507327853563"/><circle cx="209.29266456407677" cy="24.80846137907268" r="1.8666025357109368" fill="#fff7d6" opacity="0.7209263747347037"/><circle cx="56.20355295362152" cy="115.82274881614234" r="1.338062210169829" fill="#fff7d6" opacity="0.5028791874615445"/><circle cx="171.3884244830419" cy="312.95157049216255" r="0.653973792647345" fill="#fff7d6" opacity="0.9307742321627523"/><circle cx="467.2677088830234" cy="138.05841497473992" r="1.3336804937534996" fill="#fff7d6" opacity="0.753560969760046"/><circle cx="8.03332853240175" cy="104.28250682064039" r="1.681742595053144" fill="#fff7d6" opacity="0.650611203883539"/><circle cx="16.754624037507714" cy="13.789218979615207" r="0.8668555944872769" fill="#fff7d6" opacity="0.682914878382017"/><circle cx="494.17660719199114" cy="607.1964246341387" r="1.1519011675295263" fill="#fff7d6" opacity="0.841276539638347"/><circle cx="515.6014753247741" cy="267.05998962209736" r="1.5357114876509521" fill="#fff7d6" opacity="0.6693721117206906"/><circle cx="2.6634647984465243" cy="131.19295558048245" r="1.5100872363520588" fill="#fff7d6" opacity="0.8599390530341149"/><circle cx="388.9770757037883" cy="141.37230832334947" r="1.6644266840400053" fill="#fff7d6" opacity="0.5033731410456881"/><circle cx="434.5147426969825" cy="512.835535935089" r="1.2343489185889984" fill="#fff7d6" opacity="0.7626398898012607"/><circle cx="200.87740546632182" cy="164.36566458959385" r="1.3939606191834826" fill="#fff7d6" opacity="0.959803176330431"/><circle cx="23.117458522393086" cy="489.5344303021369" r="0.9524177412419202" fill="#fff7d6" opacity="0.8956405683041395"/><circle cx="117.44518817927145" cy="365.189262277476" r="1.3535401281557753" fill="#fff7d6" opacity="0.5233908317350138"/><circle cx="480.17895169862936" cy="529.2190160427783" r="1.1189691627571101" fill="#fff7d6" opacity="0.5477702405217422"/><circle cx="1.24008370617672" cy="377.3457613495095" r="1.7937386596853715" fill="#fff7d6" opacity="0.8968968828954679"/><circle cx="581.9060214941261" cy="129.46085388489908" r="0.7029077892523543" fill="#fff7d6" opacity="0.6331892844817087"/><circle cx="284.3656654893053" cy="479.5353137074185" r="1.8655176707993073" fill="#fff7d6" opacity="0.7918783226676124"/><circle cx="451.12929388397384" cy="82.19448605845879" r="0.8710256792032232" fill="#fff7d6" opacity="0.9760331453486828"/><circle cx="441.36310667971594" cy="302.1927790570652" r="1.7944122817034733" fill="#fff7d6" opacity="0.6944546672712594"/><circle cx="319.3214179533725" cy="513.5745470993289" r="0.7062236392455615" fill="#fff7d6" opacity="0.6289172477314353"/><circle cx="423.5930359864449" cy="89.53508248605351" r="1.096358505350791" fill="#fff7d6" opacity="0.6588318394687918"/><circle cx="543.5886983787072" cy="335.74988193416294" r="1.1193604059279996" fill="#fff7d6" opacity="0.5285830428528362"/><circle cx="240.92188277800688" cy="359.30431256218606" r="1.54762763570319" fill="#fff7d6" opacity="0.5573110700501624"/><circle cx="417.0640530688809" cy="619.14326203085" r="1.333664444478033" fill="#fff7d6" opacity="0.5693479954183128"/>
    <g>
    <circle cx="430" cy="110" r="34" fill="#f7f2d8" stroke="#d9c98a" stroke-width="1"/>
    <circle cx="422" cy="104" r="27.88" fill="#e9e2bd"/>
  </g>
    <line x1="150" y1="60" x2="90" y2="150" stroke="#ffd24a" stroke-width="3" opacity="0.9"/>
    <rect x="0" y="600" width="600" height="200" fill="#1d2c45"/>
    <path d="M 0 604 q 100 -10 200 0 t 200 0 t 200 0" fill="none" stroke="#3f5f8f" stroke-width="2.4" opacity="0.75"/><path d="M 0 626 q 100 -10 200 0 t 200 0 t 200 0" fill="none" stroke="#3f5f8f" stroke-width="2.4" opacity="0.75"/><path d="M 0 648 q 100 -10 200 0 t 200 0 t 200 0" fill="none" stroke="#3f5f8f" stroke-width="2.4" opacity="0.75"/><path d="M 0 670 q 100 -10 200 0 t 200 0 t 200 0" fill="none" stroke="#3f5f8f" stroke-width="2.4" opacity="0.75"/><path d="M 0 692 q 100 -10 200 0 t 200 0 t 200 0" fill="none" stroke="#3f5f8f" stroke-width="2.4" opacity="0.75"/><path d="M 0 714 q 100 -10 200 0 t 200 0 t 200 0" fill="none" stroke="#3f5f8f" stroke-width="2.4" opacity="0.75"/><path d="M 0 736 q 100 -10 200 0 t 200 0 t 200 0" fill="none" stroke="#3f5f8f" stroke-width="2.4" opacity="0.75"/><path d="M 0 758 q 100 -10 200 0 t 200 0 t 200 0" fill="none" stroke="#3f5f8f" stroke-width="2.4" opacity="0.75"/><path d="M 0 780 q 100 -10 200 0 t 200 0 t 200 0" fill="none" stroke="#3f5f8f" stroke-width="2.4" opacity="0.75"/><path d="M 0 802 q 100 -10 200 0 t 200 0 t 200 0" fill="none" stroke="#3f5f8f" stroke-width="2.4" opacity="0.75"/><path d="M 0 824 q 100 -10 200 0 t 200 0 t 200 0" fill="none" stroke="#3f5f8f" stroke-width="2.4" opacity="0.75"/><path d="M 0 846 q 100 -10 200 0 t 200 0 t 200 0" fill="none" stroke="#3f5f8f" stroke-width="2.4" opacity="0.75"/><path d="M 0 868 q 100 -10 200 0 t 200 0 t 200 0" fill="none" stroke="#3f5f8f" stroke-width="2.4" opacity="0.75"/>
    <g>
    <rect x="134" y="592" width="52" height="14" fill="#3a3a4d"/>
    <polygon points="142,592 178,592 169,462 151,462" fill="#f2efe6" stroke="#101018" stroke-width="2"/>
    <rect x="153" y="436" width="14" height="26" fill="#c93a3a" stroke="#101018" stroke-width="2"/>
    <polygon points="148,432 172,432 160,414" fill="#ffd24a" opacity="0.9"/>
    <polygon points="160,422 220,390 212,424" fill="#ffd24a" opacity="0.28"/>
    <polygon points="160,422 100,390 108,424" fill="#ffd24a" opacity="0.28"/>
  </g>
  </g>
  <rect width="600" height="800" fill="none" stroke="#101018" stroke-width="14"/>
  <rect x="8" y="8" width="584" height="784" fill="none" stroke="#ffd24a" stroke-width="2" opacity="0.7"/>
  <text x="300" y="330" text-anchor="middle" font-family="Georgia, serif" font-weight="bold" font-size="38" fill="#f4f2ff">O Farol Entre</text><text x="300" y="376" text-anchor="middle" font-family="Georgia, serif" font-weight="bold" font-size="38" fill="#f4f2ff">Mundos</text>
  <text x="300" y="545" text-anchor="middle" font-family="Georgia, serif" font-style="italic" font-size="19" fill="#c2c0ec">cada estrela tem uma história</text>
  <text x="300" y="760" text-anchor="middle" font-family="Georgia, serif" font-size="13" fill="#9a97c9">VOLUME 1 · CAPA DE AMOSTRA</text>
</svg>